<mxfile host="app.diagrams.net" agent="Mozilla/5.0 (Windows NT 10.0; Win64; x64) AppleWebKit/537.36 (KHTML, like Gecko) Chrome/109.0.0.0 Safari/537.36" version="24.7.17">
  <diagram name="Halaman-1" id="S59m2s2UrdELDIsOk6rG">
    <mxGraphModel dx="880" dy="427" grid="1" gridSize="10" guides="1" tooltips="1" connect="1" arrows="1" fold="1" page="1" pageScale="1" pageWidth="827" pageHeight="1169" math="0" shadow="0">
      <root>
        <mxCell id="0" />
        <mxCell id="1" parent="0" />
        <mxCell id="O80uvi2gMkWEOvJqi5k8-39" style="edgeStyle=orthogonalEdgeStyle;rounded=0;orthogonalLoop=1;jettySize=auto;html=1;" edge="1" parent="1" source="O80uvi2gMkWEOvJqi5k8-26">
          <mxGeometry relative="1" as="geometry">
            <mxPoint x="530" y="560" as="targetPoint" />
          </mxGeometry>
        </mxCell>
        <mxCell id="O80uvi2gMkWEOvJqi5k8-40" style="edgeStyle=orthogonalEdgeStyle;rounded=0;orthogonalLoop=1;jettySize=auto;html=1;" edge="1" parent="1" source="O80uvi2gMkWEOvJqi5k8-26">
          <mxGeometry relative="1" as="geometry">
            <mxPoint x="730" y="560" as="targetPoint" />
          </mxGeometry>
        </mxCell>
        <mxCell id="O80uvi2gMkWEOvJqi5k8-26" value="Uang Bukan&amp;nbsp;&lt;div&gt;&lt;/div&gt;&lt;div&gt;Member&lt;/div&gt;" style="strokeWidth=2;html=1;shape=mxgraph.flowchart.decision;whiteSpace=wrap;fillColor=#d80073;fontColor=#ffffff;strokeColor=#A50040;" vertex="1" parent="1">
          <mxGeometry x="580" y="450" width="100" height="100" as="geometry" />
        </mxCell>
        <mxCell id="O80uvi2gMkWEOvJqi5k8-34" style="edgeStyle=orthogonalEdgeStyle;rounded=0;orthogonalLoop=1;jettySize=auto;html=1;entryX=0.5;entryY=0;entryDx=0;entryDy=0;" edge="1" parent="1" source="O80uvi2gMkWEOvJqi5k8-19" target="O80uvi2gMkWEOvJqi5k8-21">
          <mxGeometry relative="1" as="geometry" />
        </mxCell>
        <mxCell id="O80uvi2gMkWEOvJqi5k8-36" style="edgeStyle=orthogonalEdgeStyle;rounded=0;orthogonalLoop=1;jettySize=auto;html=1;entryX=0.5;entryY=0;entryDx=0;entryDy=0;" edge="1" parent="1" source="O80uvi2gMkWEOvJqi5k8-19" target="O80uvi2gMkWEOvJqi5k8-20">
          <mxGeometry relative="1" as="geometry" />
        </mxCell>
        <mxCell id="O80uvi2gMkWEOvJqi5k8-38" value="" style="edgeStyle=orthogonalEdgeStyle;rounded=0;orthogonalLoop=1;jettySize=auto;html=1;" edge="1" parent="1" source="O80uvi2gMkWEOvJqi5k8-19" target="O80uvi2gMkWEOvJqi5k8-22">
          <mxGeometry relative="1" as="geometry" />
        </mxCell>
        <mxCell id="O80uvi2gMkWEOvJqi5k8-19" value="Uang&amp;nbsp;&lt;div&gt;&lt;/div&gt;&lt;div&gt;Member&lt;/div&gt;&lt;div&gt;&lt;/div&gt;" style="strokeWidth=2;html=1;shape=mxgraph.flowchart.decision;whiteSpace=wrap;fillColor=#d80073;fontColor=#ffffff;strokeColor=#A50040;" vertex="1" parent="1">
          <mxGeometry x="150" y="450" width="100" height="100" as="geometry" />
        </mxCell>
        <mxCell id="O80uvi2gMkWEOvJqi5k8-4" style="edgeStyle=orthogonalEdgeStyle;rounded=0;orthogonalLoop=1;jettySize=auto;html=1;" edge="1" parent="1" source="O80uvi2gMkWEOvJqi5k8-2" target="O80uvi2gMkWEOvJqi5k8-3">
          <mxGeometry relative="1" as="geometry" />
        </mxCell>
        <mxCell id="O80uvi2gMkWEOvJqi5k8-2" value="MULAI" style="strokeWidth=2;html=1;shape=mxgraph.flowchart.terminator;whiteSpace=wrap;fillColor=#ffe6cc;strokeColor=#d79b00;" vertex="1" parent="1">
          <mxGeometry x="110" y="30" width="100" height="60" as="geometry" />
        </mxCell>
        <mxCell id="O80uvi2gMkWEOvJqi5k8-43" style="edgeStyle=orthogonalEdgeStyle;rounded=0;orthogonalLoop=1;jettySize=auto;html=1;" edge="1" parent="1" source="O80uvi2gMkWEOvJqi5k8-3" target="O80uvi2gMkWEOvJqi5k8-42">
          <mxGeometry relative="1" as="geometry" />
        </mxCell>
        <mxCell id="O80uvi2gMkWEOvJqi5k8-3" value="Masuk Web Pembeyaran" style="rounded=1;whiteSpace=wrap;html=1;absoluteArcSize=1;arcSize=14;strokeWidth=2;fillColor=#1ba1e2;strokeColor=#006EAF;fontColor=#ffffff;" vertex="1" parent="1">
          <mxGeometry x="364" y="10" width="100" height="100" as="geometry" />
        </mxCell>
        <mxCell id="O80uvi2gMkWEOvJqi5k8-5" value="masukan&amp;nbsp;&lt;div&gt;jumlah pembelian&lt;/div&gt;" style="shape=parallelogram;html=1;strokeWidth=2;perimeter=parallelogramPerimeter;whiteSpace=wrap;rounded=1;arcSize=12;size=0.23;fillColor=#008a00;strokeColor=#005700;fontColor=#ffffff;" vertex="1" parent="1">
          <mxGeometry x="350" y="150" width="136" height="80" as="geometry" />
        </mxCell>
        <mxCell id="O80uvi2gMkWEOvJqi5k8-31" style="edgeStyle=orthogonalEdgeStyle;rounded=0;orthogonalLoop=1;jettySize=auto;html=1;" edge="1" parent="1" source="O80uvi2gMkWEOvJqi5k8-8" target="O80uvi2gMkWEOvJqi5k8-26">
          <mxGeometry relative="1" as="geometry" />
        </mxCell>
        <mxCell id="O80uvi2gMkWEOvJqi5k8-8" value="Member" style="strokeWidth=2;html=1;shape=mxgraph.flowchart.decision;whiteSpace=wrap;fillColor=#d80073;fontColor=#ffffff;strokeColor=#A50040;" vertex="1" parent="1">
          <mxGeometry x="368" y="290" width="100" height="100" as="geometry" />
        </mxCell>
        <mxCell id="O80uvi2gMkWEOvJqi5k8-11" style="edgeStyle=orthogonalEdgeStyle;rounded=0;orthogonalLoop=1;jettySize=auto;html=1;entryX=0.5;entryY=0;entryDx=0;entryDy=0;entryPerimeter=0;" edge="1" parent="1" source="O80uvi2gMkWEOvJqi5k8-5" target="O80uvi2gMkWEOvJqi5k8-8">
          <mxGeometry relative="1" as="geometry" />
        </mxCell>
        <mxCell id="O80uvi2gMkWEOvJqi5k8-16" style="edgeStyle=orthogonalEdgeStyle;rounded=0;orthogonalLoop=1;jettySize=auto;html=1;exitX=0.1;exitY=0.47;exitDx=0;exitDy=0;exitPerimeter=0;" edge="1" parent="1" source="O80uvi2gMkWEOvJqi5k8-8">
          <mxGeometry relative="1" as="geometry">
            <mxPoint x="200" y="450" as="targetPoint" />
            <Array as="points">
              <mxPoint x="378" y="340" />
              <mxPoint x="200" y="340" />
            </Array>
          </mxGeometry>
        </mxCell>
        <mxCell id="O80uvi2gMkWEOvJqi5k8-15" value="&lt;div style=&quot;font-size: 20px;&quot;&gt;iya&lt;/div&gt;" style="text;html=1;align=center;verticalAlign=middle;resizable=0;points=[];autosize=1;strokeColor=none;fillColor=none;fontSize=20;" vertex="1" parent="1">
          <mxGeometry x="318" y="310" width="50" height="40" as="geometry" />
        </mxCell>
        <mxCell id="O80uvi2gMkWEOvJqi5k8-46" style="edgeStyle=orthogonalEdgeStyle;rounded=0;orthogonalLoop=1;jettySize=auto;html=1;entryX=0.5;entryY=0;entryDx=0;entryDy=0;" edge="1" parent="1" source="O80uvi2gMkWEOvJqi5k8-20" target="O80uvi2gMkWEOvJqi5k8-41">
          <mxGeometry relative="1" as="geometry" />
        </mxCell>
        <mxCell id="O80uvi2gMkWEOvJqi5k8-20" value="Potongan 20%&lt;div&gt;Member Diatas&lt;/div&gt;&lt;div&gt;500.000&lt;/div&gt;" style="rounded=1;whiteSpace=wrap;html=1;absoluteArcSize=1;arcSize=14;strokeWidth=2;fillColor=#1ba1e2;fontColor=#ffffff;strokeColor=#006EAF;" vertex="1" parent="1">
          <mxGeometry x="270" y="570" width="100" height="100" as="geometry" />
        </mxCell>
        <mxCell id="O80uvi2gMkWEOvJqi5k8-49" style="edgeStyle=orthogonalEdgeStyle;rounded=0;orthogonalLoop=1;jettySize=auto;html=1;" edge="1" parent="1" source="O80uvi2gMkWEOvJqi5k8-21" target="O80uvi2gMkWEOvJqi5k8-41">
          <mxGeometry relative="1" as="geometry">
            <Array as="points">
              <mxPoint x="80" y="830" />
            </Array>
          </mxGeometry>
        </mxCell>
        <mxCell id="O80uvi2gMkWEOvJqi5k8-21" value="Potongan 15%&lt;div&gt;Member Diatas&lt;/div&gt;&lt;div&gt;300.000&lt;/div&gt;" style="rounded=1;whiteSpace=wrap;html=1;absoluteArcSize=1;arcSize=14;strokeWidth=2;fillColor=#1ba1e2;fontColor=#ffffff;strokeColor=#006EAF;" vertex="1" parent="1">
          <mxGeometry x="30" y="570" width="100" height="100" as="geometry" />
        </mxCell>
        <mxCell id="O80uvi2gMkWEOvJqi5k8-45" style="edgeStyle=orthogonalEdgeStyle;rounded=0;orthogonalLoop=1;jettySize=auto;html=1;entryX=0;entryY=0.25;entryDx=0;entryDy=0;" edge="1" parent="1" source="O80uvi2gMkWEOvJqi5k8-22" target="O80uvi2gMkWEOvJqi5k8-41">
          <mxGeometry relative="1" as="geometry">
            <Array as="points">
              <mxPoint x="200" y="809" />
            </Array>
          </mxGeometry>
        </mxCell>
        <mxCell id="O80uvi2gMkWEOvJqi5k8-22" value="Potongan 10%&lt;div&gt;Member&lt;/div&gt;" style="rounded=1;whiteSpace=wrap;html=1;absoluteArcSize=1;arcSize=14;strokeWidth=2;fillColor=#1ba1e2;fontColor=#ffffff;strokeColor=#006EAF;" vertex="1" parent="1">
          <mxGeometry x="150" y="585" width="100" height="100" as="geometry" />
        </mxCell>
        <mxCell id="O80uvi2gMkWEOvJqi5k8-27" value="Potongan10%&lt;div&gt;Pembelian Diatas&lt;/div&gt;&lt;div&gt;500.000&lt;/div&gt;" style="rounded=1;whiteSpace=wrap;html=1;absoluteArcSize=1;arcSize=14;strokeWidth=2;fillColor=#1ba1e2;fontColor=#ffffff;strokeColor=#006EAF;" vertex="1" parent="1">
          <mxGeometry x="486" y="570" width="100" height="100" as="geometry" />
        </mxCell>
        <mxCell id="O80uvi2gMkWEOvJqi5k8-48" style="edgeStyle=orthogonalEdgeStyle;rounded=0;orthogonalLoop=1;jettySize=auto;html=1;entryX=1;entryY=0.5;entryDx=0;entryDy=0;" edge="1" parent="1" source="O80uvi2gMkWEOvJqi5k8-28" target="O80uvi2gMkWEOvJqi5k8-41">
          <mxGeometry relative="1" as="geometry">
            <Array as="points">
              <mxPoint x="730" y="825" />
            </Array>
          </mxGeometry>
        </mxCell>
        <mxCell id="O80uvi2gMkWEOvJqi5k8-28" value="Tanpa Potongan&lt;div&gt;Pembelian Dibawah&lt;/div&gt;&lt;div&gt;500.000&lt;/div&gt;" style="rounded=1;whiteSpace=wrap;html=1;absoluteArcSize=1;arcSize=14;strokeWidth=2;fillColor=#1ba1e2;fontColor=#ffffff;strokeColor=#006EAF;" vertex="1" parent="1">
          <mxGeometry x="680" y="570" width="100" height="100" as="geometry" />
        </mxCell>
        <mxCell id="O80uvi2gMkWEOvJqi5k8-32" value="&lt;div style=&quot;font-size: 20px;&quot;&gt;tidak&lt;/div&gt;" style="text;html=1;align=center;verticalAlign=middle;resizable=0;points=[];autosize=1;strokeColor=none;fillColor=none;fontSize=20;" vertex="1" parent="1">
          <mxGeometry x="454" y="310" width="70" height="40" as="geometry" />
        </mxCell>
        <mxCell id="O80uvi2gMkWEOvJqi5k8-41" value="menampilkan Hasil =&lt;div&gt;-nama pembeli&lt;br&gt;-Total Pembelian&amp;nbsp;&lt;br&gt;- Potongan yang Diterima&amp;nbsp;&lt;br&gt;- Total Setelah Potongan&amp;nbsp;&lt;/div&gt;" style="shape=parallelogram;html=1;strokeWidth=2;perimeter=parallelogramPerimeter;whiteSpace=wrap;rounded=1;arcSize=12;size=0.23;fillColor=#008a00;strokeColor=#005700;fontColor=#ffffff;" vertex="1" parent="1">
          <mxGeometry x="304" y="780" width="226" height="90" as="geometry" />
        </mxCell>
        <mxCell id="O80uvi2gMkWEOvJqi5k8-44" style="edgeStyle=orthogonalEdgeStyle;rounded=0;orthogonalLoop=1;jettySize=auto;html=1;" edge="1" parent="1" source="O80uvi2gMkWEOvJqi5k8-42" target="O80uvi2gMkWEOvJqi5k8-5">
          <mxGeometry relative="1" as="geometry">
            <Array as="points">
              <mxPoint x="618" y="120" />
              <mxPoint x="418" y="120" />
            </Array>
          </mxGeometry>
        </mxCell>
        <mxCell id="O80uvi2gMkWEOvJqi5k8-42" value="masukan&amp;nbsp;&lt;div&gt;nama pembeli&lt;/div&gt;" style="shape=parallelogram;html=1;strokeWidth=2;perimeter=parallelogramPerimeter;whiteSpace=wrap;rounded=1;arcSize=12;size=0.23;fillColor=#008a00;strokeColor=#005700;fontColor=#ffffff;" vertex="1" parent="1">
          <mxGeometry x="550" y="20" width="136" height="80" as="geometry" />
        </mxCell>
        <mxCell id="O80uvi2gMkWEOvJqi5k8-47" style="edgeStyle=orthogonalEdgeStyle;rounded=0;orthogonalLoop=1;jettySize=auto;html=1;entryX=0.611;entryY=0;entryDx=0;entryDy=0;entryPerimeter=0;" edge="1" parent="1" source="O80uvi2gMkWEOvJqi5k8-27" target="O80uvi2gMkWEOvJqi5k8-41">
          <mxGeometry relative="1" as="geometry" />
        </mxCell>
        <mxCell id="O80uvi2gMkWEOvJqi5k8-50" value="end" style="strokeWidth=2;html=1;shape=mxgraph.flowchart.terminator;whiteSpace=wrap;fillColor=#ffe6cc;strokeColor=#d79b00;" vertex="1" parent="1">
          <mxGeometry x="364" y="920" width="100" height="60" as="geometry" />
        </mxCell>
        <mxCell id="O80uvi2gMkWEOvJqi5k8-51" style="edgeStyle=orthogonalEdgeStyle;rounded=0;orthogonalLoop=1;jettySize=auto;html=1;entryX=0.5;entryY=0;entryDx=0;entryDy=0;entryPerimeter=0;" edge="1" parent="1" source="O80uvi2gMkWEOvJqi5k8-41" target="O80uvi2gMkWEOvJqi5k8-50">
          <mxGeometry relative="1" as="geometry" />
        </mxCell>
      </root>
    </mxGraphModel>
  </diagram>
</mxfile>
